<svg xmlns="http://www.w3.org/2000/svg" viewBox="0 0 1200 630" width="1200" height="630">
  <defs>
    <linearGradient id="bg" x1="0%" y1="0%" x2="100%" y2="100%">
      <stop offset="0%" style="stop-color:#0A4D2E"/>
      <stop offset="100%" style="stop-color:#1A7A50"/>
    </linearGradient>
  </defs>
  <rect width="1200" height="630" fill="url(#bg)"/>
  <circle cx="980" cy="80" r="240" fill="rgba(255,255,255,0.04)"/>
  <circle cx="1100" cy="520" r="180" fill="rgba(255,255,255,0.04)"/>
  <circle cx="80" cy="560" r="160" fill="rgba(255,255,255,0.04)"/>

  <!-- Document icon -->
  <g transform="translate(480, 140)">
    <rect x="0" y="0" width="240" height="300" rx="10" fill="rgba(255,255,255,0.08)" stroke="rgba(255,255,255,0.2)" stroke-width="1.5"/>
    <rect x="20" y="40" width="160" height="10" rx="5" fill="rgba(255,255,255,0.35)"/>
    <rect x="20" y="62" width="130" height="7" rx="3.5" fill="rgba(255,255,255,0.2)"/>
    <rect x="20" y="80" width="145" height="7" rx="3.5" fill="rgba(255,255,255,0.2)"/>
    <rect x="20" y="98" width="120" height="7" rx="3.5" fill="rgba(255,255,255,0.2)"/>
    <rect x="20" y="130" width="200" height="18" rx="4" fill="rgba(255,255,255,0.12)"/>
    <rect x="20" y="158" width="200" height="18" rx="4" fill="rgba(255,255,255,0.12)"/>
    <rect x="20" y="186" width="200" height="18" rx="4" fill="rgba(255,255,255,0.12)"/>
    <rect x="20" y="214" width="200" height="18" rx="4" fill="rgba(255,255,255,0.12)"/>
    <!-- DGI stamp -->
    <circle cx="180" cy="265" r="28" fill="none" stroke="rgba(255,255,255,0.25)" stroke-width="2"/>
    <text x="180" y="268" font-family="Arial" font-size="10" font-weight="bold" fill="rgba(255,255,255,0.5)" text-anchor="middle">DGI</text>
  </g>

  <!-- Badge -->
  <rect x="420" y="100" width="160" height="32" rx="16" fill="rgba(255,255,255,0.15)"/>
  <text x="500" y="121" font-family="Arial, sans-serif" font-size="14" font-weight="bold" fill="white" text-anchor="middle" letter-spacing="1">IMPÔTS.CM</text>

  <!-- Title area -->
  <text x="600" y="496" font-family="Arial, sans-serif" font-size="22" font-weight="bold" fill="white" text-anchor="middle" letter-spacing="2">VEILLE FISCALE</text>
  <text x="600" y="524" font-family="Arial, sans-serif" font-size="14" fill="rgba(255,255,255,0.5)" text-anchor="middle" letter-spacing="3">PRISMA GESTION · CAMEROUN</text>

  <!-- Bottom line -->
  <rect x="500" y="540" width="200" height="2" rx="1" fill="rgba(255,255,255,0.2)"/>
</svg>
